<svg width="89" height="80" viewBox="0 0 89 80" fill="none" xmlns="http://www.w3.org/2000/svg">
<path d="M78.3267 49.5559C75.9997 58.8888 70.3473 67.052 62.4298 72.5139C54.5124 77.9758 44.874 80.361 35.323 79.2221C25.7721 78.0833 16.9648 73.4985 10.5537 66.328C4.14256 59.1576 0.56811 49.8942 0.500963 40.2757C0.433815 30.6573 3.87858 21.3449 10.189 14.0857C16.4994 6.82638 25.2417 2.11911 34.7759 0.846984C44.31 -0.425139 53.9808 1.82531 61.9737 7.17612C69.9666 12.5269 75.7325 20.6104 78.1895 29.9099" stroke="white"/>
<path d="M45.172 49.2256L33.9766 40.1016L45.172 30.9777" stroke="white" stroke-width="2" stroke-linecap="round" stroke-linejoin="round"/>
<line x1="36.0961" y1="40.1152" x2="87.8337" y2="40.1152" stroke="white" stroke-width="2" stroke-linecap="round"/>
</svg>
