<svg width="95" height="80" viewBox="0 0 95 80" fill="none" xmlns="http://www.w3.org/2000/svg">
<path d="M16.6733 49.5559C19.0003 58.8888 24.6527 67.052 32.5702 72.5139C40.4876 77.9758 50.126 80.361 59.677 79.2221C69.2279 78.0833 78.0352 73.4985 84.4463 66.328C90.8574 59.1576 94.4319 49.8942 94.499 40.2757C94.5662 30.6573 91.1214 21.3449 84.811 14.0857C78.5006 6.82638 69.7583 2.11911 60.2241 0.846984C50.69 -0.425139 41.0192 1.82531 33.0263 7.17612C25.0334 12.5269 19.2675 20.6104 16.8105 29.9099" stroke="white"/>
<path d="M43.8278 30.9775L55.0231 40.1015L43.8278 49.2255" stroke="white" stroke-width="2" stroke-linecap="round" stroke-linejoin="round"/>
<line x1="52.9036" y1="40.0879" x2="1.16602" y2="40.0879" stroke="white" stroke-width="2" stroke-linecap="round"/>
</svg>
