<svg width="50" height="50" viewBox="0 0 50 50" fill="none" xmlns="http://www.w3.org/2000/svg">
<g clip-path="url(#clip0_2001_1672)">
<path d="M31.7761 27.6625L27.0698 25.4895C24.2094 24.1677 20.5927 25.5666 17.9802 28.6677L13.8729 26.4229C12.9615 25.9989 11.6781 26.775 11.0688 28.0895C10.773 28.6985 10.666 29.3819 10.7615 30.052C10.7867 30.3073 10.8731 30.5528 11.0135 30.7675C11.1539 30.9822 11.344 31.1599 11.5677 31.2854L15.3709 33.3687C13.7969 38.1166 14.9781 42.8656 18.3313 44.4104L23.0365 46.5823C23.7741 46.9213 24.5768 47.0952 25.3886 47.0916C26.7417 47.0603 28.0614 46.6644 29.2084 45.9458C31.3873 44.5754 33.1057 42.5835 34.1417 40.227C36.5511 35.0177 35.4896 29.375 31.7761 27.6625ZM12.3427 29.9343C12.3232 29.8887 12.3095 29.8407 12.3021 29.7916C12.2628 29.4339 12.3268 29.0724 12.4865 28.75C12.6328 28.3713 12.9135 28.0598 13.275 27.875L17.0313 29.9302C16.6283 30.5393 16.2717 31.1779 15.9646 31.8406C15.9563 31.8604 15.949 31.8802 15.9396 31.9L12.3427 29.9343ZM17.3834 32.5C19.4313 28.0656 23.4813 25.5593 26.4156 26.9114L27.5688 27.4448C26.8805 27.6459 26.2204 27.9332 25.6042 28.3C23.4252 29.67 21.7069 31.6615 20.6709 34.0177C19.5496 36.3349 19.1476 38.9346 19.5167 41.4823C19.6382 42.1888 19.8482 42.8772 20.1417 43.5312L18.9959 43C16.0552 41.6416 15.3354 36.9312 17.3834 32.5ZM32.724 39.5833C31.8199 41.6521 30.3181 43.4034 28.4115 44.6125C27.7315 45.0869 26.945 45.3861 26.1216 45.4835C25.2982 45.5809 24.4636 45.4735 23.6917 45.1708C22.9607 44.7788 22.3379 44.2124 21.8783 43.5219C21.4188 42.8314 21.1368 42.0381 21.0573 41.2125C20.7406 38.9768 21.0998 36.6976 22.0886 34.6677C22.9921 32.5986 24.494 30.8471 26.4011 29.6385C27.3074 29.0666 28.3506 28.7482 29.4219 28.7166C30.0064 28.7131 30.5847 28.8368 31.1167 29.0791C34.0521 30.4343 34.7719 35.1448 32.724 39.5833Z" fill="white"/>
<path d="M12.9792 36.9844C12.3723 37.2969 11.7044 37.4731 11.0223 37.5006C10.3402 37.5281 9.66036 37.4063 9.03024 37.1437C7.3344 36.3604 6.30211 34.3573 6.26982 31.7844C6.26708 31.579 6.18356 31.3829 6.03735 31.2387C5.89113 31.0944 5.69398 31.0135 5.48857 31.0135H5.47815C5.37556 31.0149 5.27423 31.0365 5.17996 31.077C5.0857 31.1175 5.00034 31.1762 4.92876 31.2497C4.85718 31.3232 4.80078 31.4101 4.76278 31.5054C4.72479 31.6007 4.70594 31.7026 4.70732 31.8052C4.71006 33.0804 4.97677 34.3412 5.49065 35.5083L4.32399 34.9708C3.59303 34.5787 2.97009 34.0123 2.51039 33.3218C2.05068 32.6314 1.7684 31.8382 1.68857 31.0125C1.37272 28.7768 1.7322 26.4977 2.72086 24.4677C3.62472 22.3988 5.12654 20.6474 7.03336 19.4385C7.71348 18.965 8.49977 18.6662 9.32277 18.5686C10.1458 18.4711 10.9801 18.5777 11.7521 18.8792C11.7677 18.887 11.7837 18.8939 11.8 18.9L12.9323 19.4208C11.3848 19.9721 9.96953 20.8407 8.77719 21.9708C7.58486 23.1008 6.64177 24.4676 6.00836 25.9833C5.55318 26.9631 5.21004 27.9912 4.98545 29.0479C4.94254 29.2506 4.98187 29.4619 5.09477 29.6356C5.20767 29.8092 5.38491 29.9309 5.58753 29.974C5.64133 29.9851 5.69613 29.9907 5.75107 29.9906C5.92996 29.9904 6.10333 29.9287 6.24215 29.8158C6.38097 29.703 6.47679 29.5459 6.51357 29.3708C6.71445 28.4288 7.02054 27.5123 7.42607 26.6385C9.47399 22.2052 13.525 19.6927 16.4584 21.051C17.2213 21.4644 17.8667 22.0649 18.3339 22.7961C18.8011 23.5273 19.0747 24.3652 19.1292 25.2312C19.1438 25.3328 19.1783 25.4305 19.2307 25.5187C19.2831 25.607 19.3524 25.684 19.4345 25.7455C19.5167 25.807 19.6102 25.8517 19.7096 25.877C19.8091 25.9024 19.9125 25.9079 20.0141 25.8932C20.1157 25.8786 20.2134 25.8441 20.3016 25.7917C20.3898 25.7393 20.4669 25.6701 20.5284 25.5879C20.5898 25.5057 20.6345 25.4122 20.6598 25.3128C20.6852 25.2134 20.6907 25.1099 20.6761 25.0083C20.5823 23.8849 20.2067 22.8033 19.584 21.8636C18.9613 20.9239 18.1116 20.1565 17.1136 19.6323L12.4094 17.4583C12.3924 17.4502 12.375 17.4429 12.3573 17.4365C11.3612 17.037 10.2823 16.888 9.21518 17.0024C8.14806 17.1168 7.12529 17.4912 6.23649 18.0927C4.05779 19.463 2.33949 21.4545 1.30315 23.8104C-1.10622 29.0344 -0.0458047 34.675 3.66878 36.3906L8.37503 38.5625C9.11013 38.8982 9.90961 39.0696 10.7177 39.0646C11.7195 39.0529 12.7077 38.8304 13.6177 38.4115C13.807 38.3268 13.9548 38.1704 14.0288 37.9767C14.1027 37.783 14.0967 37.5679 14.012 37.3786C13.9273 37.1894 13.7709 37.0415 13.5773 36.9676C13.3836 36.8937 13.1684 36.8997 12.9792 36.9844Z" fill="white"/>
<path d="M36.7281 31.8355C36.5209 31.8379 36.3232 31.9226 36.1784 32.0709C36.0337 32.2192 35.9537 32.4189 35.9562 32.6261C35.9587 32.8333 36.0434 33.031 36.1917 33.1758C36.34 33.3205 36.5397 33.4004 36.7469 33.398H36.7708C37.7891 33.3725 38.7818 33.0738 39.6449 32.533C40.5081 31.9922 41.2101 31.2294 41.6772 30.3242C42.1444 29.4191 42.3597 28.405 42.3004 27.3882C42.2412 26.3713 41.9097 25.3891 41.3406 24.5443C40.7715 23.6995 39.9858 23.0233 39.0657 22.5864C38.1456 22.1495 37.1249 21.968 36.1106 22.0609C35.0962 22.1538 34.1255 22.5177 33.3001 23.1145C32.4747 23.7113 31.8249 24.5191 31.4187 25.4532C31.3358 25.6431 31.3318 25.8582 31.4075 26.0511C31.4832 26.244 31.6324 26.3989 31.8224 26.4818C32.0123 26.5647 32.2274 26.5687 32.4203 26.493C32.6132 26.4173 32.7681 26.2681 32.851 26.0782C33.1454 25.401 33.6164 24.8153 34.2147 24.3826C34.8131 23.9499 35.5168 23.686 36.2521 23.6186C36.9874 23.5511 37.7274 23.6826 38.3945 23.9992C39.0615 24.3159 39.6312 24.806 40.0439 25.4184C40.4566 26.0307 40.697 26.7427 40.7401 27.4799C40.7831 28.217 40.6272 28.9522 40.2887 29.6085C39.9501 30.2647 39.4414 30.8179 38.8157 31.21C38.1901 31.6022 37.4705 31.8189 36.7323 31.8375L36.7281 31.8355Z" fill="white"/>
<path d="M48.6759 6.78017C47.9196 5.59048 46.8745 4.6115 45.638 3.93434C44.4015 3.25718 43.0138 2.90385 41.6041 2.90725H31.7343C30.3253 2.90748 28.9391 3.26248 27.7034 3.93951C26.4677 4.61654 25.4224 5.5938 24.6639 6.78117C23.9053 7.96853 23.458 9.32778 23.3631 10.7336C23.2681 12.1393 23.5287 13.5464 24.1207 14.825L26.7551 20.5114C26.1562 21.3323 25.6611 22.2242 25.2812 23.1666C25.2091 23.3579 25.2148 23.5698 25.2971 23.7568C25.3794 23.9439 25.5318 24.0913 25.7215 24.1673C25.9112 24.2434 26.1232 24.2421 26.3119 24.1636C26.5007 24.0852 26.6512 23.936 26.7312 23.7479C27.1064 22.8148 27.6106 21.9389 28.2291 21.1458C28.2376 21.1358 28.2456 21.1254 28.253 21.1145C28.9444 20.233 29.7713 19.4669 30.703 18.8448C30.7093 18.8448 30.7124 18.8364 30.7187 18.8343C31.9061 18.0514 33.2381 17.514 34.6364 17.2536C36.0347 16.9933 37.4709 17.0153 38.8605 17.3185C40.2501 17.6216 41.565 18.1997 42.7279 19.0187C43.8907 19.8377 44.8779 20.8811 45.6314 22.0874C46.3848 23.2937 46.8894 24.6386 47.1152 26.0429C47.3411 27.4471 47.2837 28.8823 46.9465 30.2641C46.6092 31.6458 45.999 32.9461 45.1516 34.0884C44.3042 35.2308 43.2369 36.192 42.0124 36.9156H36.6666C36.4594 36.9156 36.2607 36.9979 36.1141 37.1444C35.9676 37.2909 35.8853 37.4896 35.8853 37.6968C35.8853 37.904 35.9676 38.1027 36.1141 38.2493C36.2607 38.3958 36.4594 38.4781 36.6666 38.4781H42.2176C42.3519 38.4769 42.4836 38.441 42.5999 38.3739C44.1008 37.5357 45.4075 36.3894 46.4339 35.0104C47.4604 33.6314 48.1835 32.0508 48.5558 30.3724C48.9281 28.6941 48.9411 26.956 48.5939 25.2722C48.2468 23.5885 47.5473 21.9973 46.5416 20.6031L49.2187 14.8239C49.8139 13.5462 50.0763 12.1387 49.9814 10.7323C49.8865 9.3259 49.4374 7.96637 48.6759 6.78017ZM47.8009 14.1677L45.4364 19.2718C44.9659 18.7837 44.4558 18.3353 43.9114 17.9312L46.0332 13.3479C46.3777 12.6043 46.5294 11.7858 46.4742 10.9682C46.419 10.1505 46.1587 9.35986 45.7173 8.6693C45.276 7.97874 44.6678 7.41047 43.9489 7.01695C43.23 6.62343 42.4236 6.41733 41.6041 6.41767H40.6249C40.4177 6.41767 40.219 6.49998 40.0725 6.64649C39.926 6.793 39.8437 6.99172 39.8437 7.19892C39.8437 7.40612 39.926 7.60483 40.0725 7.75135C40.219 7.89786 40.4177 7.98017 40.6249 7.98017H41.6009C42.1583 7.97969 42.7068 8.11969 43.1958 8.38723C43.6847 8.65477 44.0984 9.04122 44.3985 9.51088C44.6986 9.98054 44.8756 10.5183 44.913 11.0744C44.9503 11.6305 44.847 12.1871 44.6124 12.6927L42.5916 17.0625C40.7818 16.046 38.7428 15.5077 36.6672 15.4984C34.5916 15.4891 32.5478 16.0091 30.7291 17.0093L28.7291 12.6927C28.4945 12.1871 28.3912 11.6307 28.4285 11.0746C28.4658 10.5186 28.6427 9.98096 28.9427 9.51132C29.2427 9.04169 29.6562 8.65522 30.145 8.38761C30.6338 8.12 31.1822 7.97987 31.7395 7.98017H38.2926C38.4998 7.98017 38.6985 7.89786 38.845 7.75135C38.9915 7.60483 39.0739 7.40612 39.0739 7.19892C39.0739 6.99172 38.9915 6.793 38.845 6.64649C38.6985 6.49998 38.4998 6.41767 38.2926 6.41767H31.7343C30.9147 6.41789 30.1085 6.62444 29.3898 7.01829C28.6711 7.41214 28.0631 7.9806 27.6219 8.67126C27.1808 9.36191 26.9206 10.1525 26.8654 10.9702C26.8102 11.7879 26.9618 12.6063 27.3062 13.35L29.3957 17.8593C28.8494 18.2592 28.3376 18.7042 27.8655 19.1895L25.5395 14.1666C25.0571 13.1262 24.8445 11.9811 24.9214 10.8369C24.9983 9.69272 25.3622 8.58633 25.9795 7.61987C26.5968 6.6534 27.4476 5.858 28.4534 5.30708C29.4591 4.75616 30.5875 4.46748 31.7343 4.46767H41.6041C42.7508 4.46748 43.8791 4.7561 44.8849 5.30689C45.8906 5.85768 46.7415 6.6529 47.3589 7.61919C47.9764 8.58548 48.3405 9.69171 48.4178 10.8358C48.495 11.9799 48.2829 13.1251 47.8009 14.1656V14.1677Z" fill="white"/>
</g>
<defs>
<clipPath id="clip0_2001_1672">
<rect width="50" height="50" fill="white"/>
</clipPath>
</defs>
</svg>
