<svg width="11" height="15" viewBox="0 0 11 15" fill="none" xmlns="http://www.w3.org/2000/svg">
<path d="M7.4375 6C7.41927 6.61979 7.20964 7.13932 6.80859 7.55859C6.38932 7.95964 5.86979 8.16927 5.25 8.1875C4.63021 8.16927 4.11068 7.95964 3.69141 7.55859C3.29036 7.13932 3.08073 6.61979 3.0625 6C3.08073 5.38021 3.29036 4.86068 3.69141 4.44141C4.11068 4.04036 4.63021 3.83073 5.25 3.8125C5.86979 3.83073 6.38932 4.04036 6.80859 4.44141C7.20964 4.86068 7.41927 5.38021 7.4375 6ZM5.25 5.125C4.99479 5.125 4.78516 5.20703 4.62109 5.37109C4.45703 5.53516 4.375 5.74479 4.375 6C4.375 6.25521 4.45703 6.46484 4.62109 6.62891C4.78516 6.79297 4.99479 6.875 5.25 6.875C5.50521 6.875 5.71484 6.79297 5.87891 6.62891C6.04297 6.46484 6.125 6.25521 6.125 6C6.125 5.74479 6.04297 5.53516 5.87891 5.37109C5.71484 5.20703 5.50521 5.125 5.25 5.125ZM10.5 6C10.4635 6.82031 10.1719 7.76823 9.625 8.84375C9.0599 9.91927 8.42188 10.9583 7.71094 11.9609C7 12.9818 6.39844 13.793 5.90625 14.3945C5.72396 14.6133 5.50521 14.7227 5.25 14.7227C4.99479 14.7227 4.77604 14.6133 4.59375 14.3945C4.10156 13.793 3.49089 12.9818 2.76172 11.9609C2.05078 10.9583 1.42188 9.91927 0.875 8.84375C0.328125 7.76823 0.0364583 6.82031 0 6C0.0364583 4.50521 0.546875 3.26562 1.53125 2.28125C2.51562 1.29688 3.75521 0.786458 5.25 0.75C6.74479 0.786458 7.98438 1.29688 8.96875 2.28125C9.95312 3.26562 10.4635 4.50521 10.5 6ZM5.25 2.0625C4.13802 2.09896 3.20833 2.48177 2.46094 3.21094C1.73177 3.95833 1.34896 4.88802 1.3125 6C1.3125 6.34635 1.44922 6.86589 1.72266 7.55859C2.03255 8.2513 2.42448 8.98047 2.89844 9.74609C3.28125 10.3841 3.68229 10.9857 4.10156 11.5508C4.52083 12.1341 4.90365 12.6536 5.25 13.1094C5.59635 12.6536 5.97917 12.1432 6.39844 11.5781C6.81771 10.9948 7.21875 10.3841 7.60156 9.74609C8.07552 8.98047 8.46745 8.2513 8.77734 7.55859C9.05078 6.86589 9.1875 6.34635 9.1875 6C9.15104 4.88802 8.76823 3.95833 8.03906 3.21094C7.29167 2.48177 6.36198 2.09896 5.25 2.0625Z" fill="white"/>
</svg>
